<svg width="22" height="24" viewBox="0 0 22 24" fill="none" xmlns="http://www.w3.org/2000/svg">
<path d="M1 24.0001C0.734784 24.0001 0.48043 23.8947 0.292893 23.7072C0.105357 23.5196 0 23.2653 0 23.0001V1.00007C2.97509e-05 0.826302 0.0453407 0.655539 0.131467 0.504613C0.217593 0.353688 0.341561 0.22781 0.491153 0.139387C0.640745 0.0509647 0.810796 0.00304898 0.984546 0.000363583C1.1583 -0.00232182 1.32975 0.0403158 1.482 0.124073L21.482 11.1241C21.6388 11.2104 21.7695 11.3372 21.8606 11.4913C21.9517 11.6454 21.9997 11.8211 21.9997 12.0001C21.9997 12.1791 21.9517 12.3548 21.8606 12.5088C21.7695 12.6629 21.6388 12.7897 21.482 12.8761L1.482 23.8761C1.33435 23.9574 1.16855 24 1 24.0001Z" fill="black"/>
</svg>
